<?xml version="1.0" standalone="no"?>
<!DOCTYPE svg PUBLIC "-//W3C//DTD SVG 20010904//EN"
 "http://www.w3.org/TR/2001/REC-SVG-20010904/DTD/svg10.dtd">
<svg version="1.0" xmlns="http://www.w3.org/2000/svg"
 width="1280.000000pt" height="1280.000000pt" viewBox="0 0 1280.000000 1280.000000"
 preserveAspectRatio="xMidYMid meet">
<metadata>
Created by potrace 1.14, written by Peter Selinger 2001-2017
</metadata>
<g transform="translate(0.000000,1280.000000) scale(0.100000,-0.100000)"
fill="#000000" stroke="none">
<path d="M0 6400 l0 -6400 6400 0 6400 0 0 1424 c0 1352 -1 1424 -18 1420 -11
-3 -30 8 -52 31 l-35 36 20 37 c17 31 26 37 53 37 l32 0 0 4907 0 4908 -6400
0 -6400 0 0 -6400z m4800 5980 c0 -12 -29 -20 -35 -10 -9 15 4 30 20 23 8 -3
15 -9 15 -13z m2614 -388 c53 -48 47 -71 -32 -106 l-41 -19 -48 25 c-26 14
-50 33 -51 43 -3 11 12 33 36 55 61 58 75 58 136 2z m-904 -152 c20 -14 32
-37 45 -82 17 -63 179 -556 194 -593 5 -11 19 -54 31 -95 12 -41 25 -82 29
-90 4 -8 25 -69 46 -135 l39 -120 226 3 c248 4 280 -1 325 -48 l30 -31 0 -389
0 -389 222 -3 c322 -4 303 24 303 -469 0 -484 16 -459 -296 -459 -110 0 -203
-2 -206 -5 -4 -4 75 -245 154 -475 3 -8 16 -49 28 -90 12 -41 26 -84 31 -95 4
-11 29 -83 54 -160 25 -77 49 -149 54 -160 5 -11 26 -74 47 -140 21 -66 50
-148 66 -183 15 -34 28 -71 28 -82 0 -10 4 -21 9 -24 9 -6 20 -48 27 -101 2
-16 8 -39 13 -50 5 -11 31 -85 57 -165 25 -80 50 -154 55 -165 4 -11 24 -69
44 -130 20 -60 40 -119 44 -130 5 -11 14 -40 21 -65 7 -25 16 -54 21 -65 4
-11 47 -139 95 -285 47 -146 90 -274 95 -285 4 -11 24 -72 45 -135 20 -63 40
-123 45 -132 5 -10 9 -27 9 -37 0 -11 5 -23 10 -26 6 -3 10 -16 10 -29 0 -12
4 -26 8 -31 5 -6 14 -30 21 -55 7 -25 19 -61 27 -80 7 -19 32 -93 55 -165 45
-140 49 -151 73 -207 9 -20 16 -41 16 -47 0 -6 4 -19 9 -29 8 -16 15 -37 41
-132 6 -25 16 -53 21 -62 5 -10 9 -26 9 -36 0 -10 4 -22 8 -28 5 -5 14 -29 21
-54 6 -25 16 -54 21 -65 5 -11 30 -85 56 -165 26 -80 50 -154 55 -165 4 -11
33 -99 64 -195 31 -96 61 -183 66 -192 5 -10 9 -27 9 -37 0 -11 5 -23 10 -26
6 -3 10 -17 10 -30 0 -13 5 -27 10 -30 6 -3 10 -15 10 -26 0 -10 4 -27 10 -37
5 -9 21 -55 35 -102 15 -47 31 -93 36 -102 5 -10 9 -27 9 -37 0 -11 5 -23 10
-26 6 -3 10 -15 10 -26 0 -10 4 -27 10 -37 5 -9 35 -96 66 -192 31 -96 60
-183 65 -192 5 -10 9 -27 9 -37 0 -11 4 -22 9 -25 5 -3 11 -18 14 -33 2 -16
31 -107 64 -203 77 -223 115 -338 159 -475 20 -60 40 -118 45 -127 5 -10 9
-25 9 -33 0 -8 4 -23 9 -33 5 -9 21 -55 36 -102 15 -47 31 -94 35 -105 5 -11
14 -38 21 -60 6 -22 15 -49 20 -60 4 -11 13 -38 20 -60 6 -22 15 -49 20 -60 5
-11 24 -72 44 -135 20 -63 41 -123 46 -132 5 -10 9 -27 9 -37 0 -11 5 -23 10
-26 6 -3 10 -16 10 -29 0 -12 4 -26 8 -32 5 -5 14 -29 22 -54 7 -25 28 -90 47
-145 19 -55 39 -116 45 -135 6 -19 14 -43 19 -52 5 -10 9 -26 9 -36 0 -10 5
-23 10 -28 16 -16 16 -89 1 -118 -21 -37 -63 -52 -110 -36 -33 11 -42 10 -65
-5 -34 -22 -80 -14 -123 23 -17 15 -57 45 -88 67 -31 22 -69 50 -83 63 -15 12
-43 32 -62 44 -19 12 -37 25 -40 28 -3 3 -34 28 -70 55 -36 27 -66 53 -68 57
-2 4 -8 8 -13 8 -5 0 -17 7 -26 15 -10 8 -47 37 -83 65 -36 27 -74 57 -85 66
-11 8 -32 23 -47 32 -16 9 -28 20 -28 24 0 4 -6 8 -14 8 -8 0 -16 4 -18 8 -1
4 -39 34 -83 67 -44 33 -82 62 -85 65 -3 3 -30 23 -60 45 -30 22 -56 43 -58
47 -2 5 -8 8 -13 8 -5 0 -17 7 -26 15 -10 8 -47 37 -83 64 -36 28 -69 54 -75
59 -5 4 -26 19 -45 32 -35 25 -52 38 -93 74 -12 10 -42 32 -67 49 -25 17 -46
34 -48 39 -2 4 -10 8 -17 8 -7 0 -15 3 -17 8 -1 4 -39 34 -83 67 -44 33 -87
65 -95 72 -25 21 -102 77 -119 88 -8 6 -20 15 -27 20 -30 25 -52 42 -84 65
-19 13 -40 29 -46 35 -7 5 -24 19 -40 30 -15 11 -33 26 -40 33 -7 6 -16 12
-21 12 -5 0 -24 14 -43 30 -32 28 -109 87 -176 135 -60 43 -189 140 -194 145
-3 3 -21 17 -40 30 -19 13 -37 27 -40 30 -11 13 -131 100 -138 100 -4 0 -14 9
-22 20 -8 11 -20 20 -26 20 -7 0 -14 4 -16 8 -3 9 -132 106 -194 146 l-41 27
-429 -2 c-474 -3 -667 -3 -948 -1 l-188 2 -40 39 -39 39 3 386 3 386 -203 0
c-227 0 -258 7 -293 64 -18 29 -19 56 -19 368 0 388 14 336 -120 437 -160 121
-167 127 -152 142 6 7 12 20 12 29 0 30 31 120 41 120 6 0 27 -13 47 -30 20
-16 66 -52 102 -80 36 -27 70 -53 75 -58 76 -60 61 -57 320 -62 266 -6 276 -8
315 -73 17 -28 20 -51 20 -184 0 -83 3 -158 6 -167 3 -9 36 -37 73 -63 36 -26
68 -50 71 -53 3 -3 21 -17 40 -30 19 -13 37 -27 40 -30 3 -3 41 -33 85 -65 44
-33 82 -62 85 -65 3 -3 27 -22 55 -41 27 -18 59 -42 70 -52 11 -11 31 -23 44
-28 23 -9 1349 -15 1357 -6 2 2 0 18 -6 35 -5 19 -7 179 -4 375 4 283 8 347
21 374 14 29 14 33 -1 54 -23 34 -24 754 -1 799 14 27 14 33 0 60 -13 24 -15
88 -15 410 l0 380 -217 0 c-120 1 -564 1 -988 0 -746 0 -771 1 -802 20 -64 38
-64 40 -61 454 l3 375 -212 3 c-232 3 -237 5 -287 72 -20 27 -21 37 -18 398 2
306 5 375 17 399 14 26 14 32 0 59 -13 24 -15 87 -15 400 0 327 2 375 16 400
16 26 16 29 0 51 -14 21 -16 67 -16 397 0 412 0 414 63 452 29 18 51 20 242
20 l210 0 -3 377 c-3 428 -4 426 72 462 40 20 63 20 694 20 360 0 656 2 660 5
6 7 -37 145 -50 161 -4 5 -8 17 -8 27 0 10 -4 26 -9 36 -5 9 -36 100 -70 202
-33 102 -86 257 -117 345 -31 88 -60 178 -65 200 -4 23 -9 45 -10 50 -6 20 14
61 40 82 33 28 75 29 111 3z m-1512 -679 c24 -20 28 -51 12 -82 -8 -14 -21
-19 -49 -19 -42 0 -56 11 -66 52 -14 54 58 88 103 49z m-598 -1621 c33 -33 26
-65 -17 -83 -35 -14 -40 -13 -65 5 -35 24 -35 51 -2 77 33 26 58 27 84 1z
m4350 -1240 c0 -23 -36 -36 -55 -20 -20 17 -19 37 2 49 23 12 53 -4 53 -29z
m-6249 -336 c10 -13 10 -17 -2 -25 -30 -19 -57 -3 -45 26 7 20 30 19 47 -1z
m-1581 -272 c0 -5 11 -15 25 -22 33 -18 32 -23 -10 -43 -19 -9 -35 -23 -35
-32 0 -8 -4 -15 -10 -15 -5 0 -10 -16 -10 -35 0 -19 -4 -35 -9 -35 -5 0 -26
15 -45 34 -28 25 -36 41 -36 67 0 47 42 88 93 88 20 1 37 -3 37 -7z m351 -265
c13 -13 40 -33 59 -47 19 -13 37 -27 40 -30 3 -3 37 -28 75 -55 39 -27 72 -52
75 -55 3 -3 21 -17 40 -30 37 -26 53 -38 104 -81 17 -14 54 -41 81 -59 28 -19
52 -36 55 -40 3 -3 34 -28 70 -55 36 -28 67 -53 68 -57 2 -5 10 -8 17 -8 7 0
15 -3 17 -8 2 -4 32 -28 68 -54 36 -26 80 -60 98 -75 19 -14 59 -44 89 -65 31
-22 61 -45 68 -51 6 -7 25 -22 41 -34 16 -11 67 -50 112 -85 46 -34 91 -67
100 -73 10 -5 19 -12 22 -15 3 -3 41 -32 85 -65 43 -33 86 -65 95 -72 8 -6 53
-40 100 -75 47 -35 87 -66 88 -70 2 -5 8 -8 13 -8 8 0 17 -6 70 -51 11 -9 35
-27 54 -40 19 -13 35 -27 35 -31 0 -5 5 -8 11 -8 8 0 79 -50 99 -70 3 -3 41
-32 85 -65 44 -33 85 -64 90 -68 6 -4 39 -29 75 -55 36 -25 67 -49 70 -52 3
-3 21 -17 40 -30 19 -13 37 -27 40 -30 3 -3 41 -32 85 -65 44 -33 82 -62 85
-65 3 -3 48 -37 100 -75 52 -38 97 -72 100 -75 3 -3 43 -34 90 -68 47 -35 92
-68 100 -75 8 -7 31 -23 50 -37 19 -13 37 -27 40 -30 3 -3 22 -19 43 -34 36
-28 50 -67 27 -81 -5 -3 -10 -17 -10 -30 0 -13 -4 -27 -10 -30 -5 -3 -10 -17
-10 -31 0 -17 -5 -24 -20 -24 -11 0 -20 4 -20 9 0 5 -8 12 -17 15 -10 4 -35
22 -57 41 -21 19 -42 35 -46 35 -5 0 -15 6 -22 13 -7 7 -49 40 -93 73 -44 32
-81 62 -83 67 -2 4 -10 7 -17 7 -7 0 -15 4 -17 8 -1 4 -32 30 -68 57 -36 27
-70 54 -76 60 -27 23 -55 45 -59 45 -5 0 -125 89 -135 100 -3 3 -21 17 -40 30
-19 13 -37 27 -40 30 -3 3 -36 28 -75 56 -69 48 -85 61 -128 98 -12 10 -42 32
-67 49 -25 17 -47 34 -50 37 -3 3 -27 21 -55 40 -27 19 -52 36 -55 40 -3 3
-23 19 -45 35 -22 17 -42 32 -45 35 -3 3 -21 17 -40 30 -19 13 -37 27 -40 30
-3 3 -23 18 -45 35 -22 16 -42 32 -45 35 -3 3 -21 17 -40 30 -19 14 -42 30
-50 37 -8 6 -53 40 -100 75 -47 34 -94 71 -104 80 -11 10 -24 18 -29 18 -4 0
-14 6 -21 13 -7 6 -30 26 -51 42 -21 17 -44 36 -51 43 -7 6 -17 12 -21 12 -5
0 -18 8 -29 18 -10 9 -37 30 -59 47 -22 16 -46 35 -53 42 -7 7 -26 20 -42 30
-17 9 -30 21 -30 25 0 4 -5 8 -11 8 -6 0 -16 6 -23 13 -24 23 -62 52 -111 86
-28 19 -52 37 -55 41 -3 3 -41 32 -85 64 -44 33 -81 63 -83 68 -2 4 -10 8 -18
8 -8 0 -14 4 -14 8 0 4 -13 16 -30 25 -16 10 -35 23 -42 30 -29 28 -137 107
-146 107 -6 0 -12 4 -14 8 -1 5 -34 32 -73 61 -38 29 -77 58 -86 65 -9 8 -52
40 -95 72 -43 33 -85 64 -94 71 -8 6 -46 35 -85 64 -71 54 -95 74 -95 82 0 2
62 4 138 5 130 1 140 -1 163 -21z m2873 -297 c57 -21 70 -87 24 -130 -48 -44
-118 -10 -118 58 0 42 6 54 35 70 25 14 28 14 59 2z m4943 -80 c16 -32 -3 -64
-41 -68 -34 -4 -56 13 -56 46 0 52 73 69 97 22z m2341 -3578 c16 -21 15 -33
-4 -60 -17 -24 -62 -30 -82 -10 -7 7 -12 27 -12 45 0 26 5 36 23 43 27 11 58
3 75 -18z"/>
<path d="M5400 10580 c0 -4 7 -24 16 -45 54 -131 56 -381 4 -539 l-19 -58 22
6 c117 34 147 38 229 34 56 -4 88 -2 91 5 2 6 -1 40 -6 76 -9 68 -3 417 8 461
l6 25 -118 0 c-96 1 -129 5 -175 22 -32 12 -58 18 -58 13z"/>
<path d="M7270 10567 c-44 -17 -77 -21 -168 -22 l-113 0 8 -85 c10 -110 10
-303 0 -405 l-8 -80 123 0 c104 -1 131 -4 176 -23 28 -12 52 -20 52 -18 0 3
-8 24 -18 48 -35 81 -45 159 -40 310 5 137 11 172 53 281 9 21 4 21 -65 -6z"/>
<path d="M5984 10518 c-3 -4 -5 -123 -6 -265 l-1 -258 131 0 c108 0 132 3 135
15 2 8 0 67 -5 130 -4 63 -6 138 -3 165 4 49 7 146 6 195 l-1 25 -126 0 c-69
0 -128 -3 -130 -7z"/>
<path d="M6499 10525 c-3 0 -3 -525 1 -525 3 -1 61 -2 130 -4 l126 -3 -1 266
-1 265 -127 1 c-70 0 -127 0 -128 0z"/>
<path d="M5620 9792 l-215 -2 3 -373 c2 -326 1 -376 -14 -408 -15 -33 -15 -39
0 -67 23 -45 24 -747 1 -792 -14 -27 -14 -33 0 -59 12 -24 15 -92 17 -393 1
-200 -1 -369 -5 -375 -4 -6 -3 -14 2 -18 6 -3 452 -5 993 -5 955 0 984 -1
1015 -20 64 -38 64 -40 61 -455 l-3 -374 217 -3 c326 -5 308 23 308 -468 0
-329 -1 -359 -19 -393 -18 -36 -18 -38 0 -74 18 -34 19 -64 19 -393 0 -327 -1
-358 -19 -390 -18 -33 -18 -35 0 -65 18 -28 19 -57 19 -385 0 -391 -1 -399
-63 -444 -26 -19 -44 -21 -245 -24 l-217 -3 3 -369 c3 -410 2 -422 -60 -460
-24 -14 -51 -20 -98 -20 -76 0 -104 -12 -72 -29 11 -6 26 -17 34 -24 7 -7 31
-26 53 -42 22 -17 42 -32 45 -35 3 -4 28 -22 55 -41 28 -18 52 -36 55 -39 21
-21 100 -80 107 -80 5 0 15 -9 23 -20 8 -11 18 -20 23 -20 5 0 15 -6 22 -12
22 -20 37 -31 75 -58 38 -27 65 -48 85 -67 8 -7 18 -13 23 -13 6 0 12 -3 14
-8 2 -4 28 -25 58 -47 30 -22 57 -42 60 -45 3 -3 41 -32 85 -65 44 -33 82 -63
83 -67 2 -4 8 -8 13 -8 8 0 35 -20 64 -48 8 -6 18 -12 24 -12 6 0 11 -3 11 -7
0 -5 20 -21 45 -38 24 -16 45 -33 45 -37 0 -5 5 -8 11 -8 6 0 16 -6 23 -13 7
-6 25 -21 41 -32 15 -11 45 -35 68 -53 22 -18 49 -38 61 -44 12 -6 28 -19 37
-30 9 -10 21 -18 27 -18 6 0 12 -4 14 -8 2 -5 23 -22 48 -39 25 -17 56 -41 70
-53 14 -12 37 -29 53 -38 15 -9 27 -20 27 -24 0 -4 5 -8 10 -8 6 0 22 -11 36
-25 14 -14 28 -25 33 -25 4 0 16 -8 27 -18 10 -10 35 -28 54 -42 19 -13 37
-27 40 -30 3 -3 48 -37 100 -75 52 -38 106 -80 120 -92 14 -13 28 -23 31 -23
4 0 27 -16 51 -36 66 -54 70 -57 108 -84 19 -13 37 -27 40 -30 3 -3 48 -37
100 -75 52 -38 97 -72 100 -76 3 -3 30 -23 60 -44 30 -21 57 -41 60 -45 3 -3
21 -17 40 -30 19 -13 37 -27 40 -30 9 -11 68 -50 75 -50 4 0 5 15 2 33 -5 34
-192 600 -208 629 -5 10 -9 27 -9 37 0 11 -4 23 -10 26 -5 3 -10 16 -10 29 0
12 -4 26 -8 32 -5 5 -14 29 -21 54 -7 25 -17 53 -22 62 -5 10 -9 24 -9 33 0 8
-7 31 -16 52 -24 56 -31 73 -43 123 -7 25 -16 54 -21 65 -5 11 -34 97 -65 190
-30 94 -59 179 -64 190 -5 11 -14 40 -21 65 -7 25 -16 54 -20 65 -5 11 -13 36
-19 55 -6 19 -20 62 -31 95 -12 33 -28 83 -36 110 -8 28 -19 59 -24 70 -5 11
-14 38 -21 60 -6 22 -15 49 -20 60 -4 11 -13 38 -20 60 -7 22 -22 69 -35 105
-12 36 -28 83 -34 105 -7 22 -16 48 -21 57 -5 10 -9 27 -9 37 0 11 -4 23 -10
26 -5 3 -10 17 -10 30 0 13 -4 27 -10 30 -5 3 -10 15 -10 26 0 10 -4 27 -9 37
-5 9 -26 69 -46 132 -20 63 -41 123 -46 132 -5 10 -9 26 -9 36 0 10 -4 22 -8
27 -5 6 -14 30 -21 55 -7 25 -17 54 -21 65 -17 47 -53 154 -66 200 -8 28 -19
59 -23 70 -5 11 -15 40 -22 65 -7 25 -15 50 -19 55 -4 6 -12 30 -19 55 -8 25
-25 77 -38 115 -29 83 -36 105 -54 165 -7 25 -16 49 -21 55 -4 5 -8 17 -8 27
0 10 -4 26 -9 36 -14 25 -56 147 -81 232 -12 41 -26 83 -31 92 -5 10 -9 26 -9
36 0 10 -4 22 -8 27 -5 6 -14 30 -21 55 -7 25 -27 88 -45 140 -18 52 -39 115
-46 140 -8 25 -17 49 -22 55 -4 5 -8 17 -8 27 0 10 -4 26 -9 36 -5 9 -30 82
-56 162 -26 80 -50 154 -55 165 -4 11 -24 70 -43 130 -76 234 -99 301 -108
317 -5 10 -9 27 -9 37 0 11 -4 23 -10 26 -5 3 -10 16 -10 29 0 12 -4 26 -8 32
-5 5 -14 29 -21 54 -7 25 -23 74 -35 110 -13 36 -28 83 -35 105 -7 22 -16 49
-20 60 -5 11 -36 103 -69 205 -97 293 -103 311 -148 418 -8 18 -14 42 -14 52
0 11 -4 20 -10 20 -5 0 -10 18 -10 39 0 22 -4 42 -9 45 -5 3 -11 18 -14 33 -4
24 -18 68 -47 148 -4 11 -29 85 -54 165 -26 80 -51 153 -56 162 -6 10 -10 27
-10 37 0 11 -4 23 -10 26 -5 3 -10 15 -10 26 0 10 -4 27 -9 37 -5 9 -34 96
-66 192 -31 96 -60 184 -64 195 -5 11 -39 112 -75 225 -37 113 -71 214 -75
225 -5 11 -34 99 -65 195 -31 96 -61 183 -66 192 -6 10 -10 25 -10 33 0 8 -4
23 -9 33 -5 9 -19 51 -32 92 -12 41 -26 79 -30 83 -6 8 -963 15 -1389 9z"/>
<path d="M7210 9784 c0 -14 103 -310 111 -318 5 -6 9 56 9 157 l0 167 -60 0
c-33 0 -60 -3 -60 -6z"/>
<path d="M4884 9721 c25 -39 38 -131 42 -301 5 -163 3 -194 -14 -260 -11 -41
-19 -76 -18 -77 1 -1 24 5 51 13 68 21 207 21 268 -1 27 -9 51 -15 53 -13 1 2
-4 24 -12 48 -38 108 -38 389 0 534 9 33 14 61 13 63 -2 1 -41 -5 -87 -14 -85
-17 -102 -16 -269 14 -24 4 -32 2 -27 -6z"/>
<path d="M7483 9658 c30 -109 30 -391 0 -502 l-21 -78 46 8 c58 11 252 10 308
0 l42 -8 -20 78 c-29 112 -29 395 -1 502 13 46 16 72 9 72 -6 -1 -40 -7 -76
-15 -83 -18 -150 -18 -225 0 -33 8 -65 14 -71 15 -6 0 -3 -27 9 -72z"/>
<path d="M5215 8858 c-63 -22 -190 -23 -265 -3 -30 8 -56 15 -56 15 -1 0 7
-33 18 -72 36 -130 26 -449 -17 -560 -6 -15 0 -14 57 4 75 24 209 21 272 -6
22 -9 41 -15 43 -13 2 2 -3 22 -11 45 -47 132 -47 432 0 564 8 23 13 42 12 42
-2 1 -25 -6 -53 -16z"/>
<path d="M4895 8001 c37 -91 46 -363 19 -506 -9 -44 -18 -92 -21 -106 l-5 -27
53 14 c68 18 209 18 277 0 29 -7 52 -12 52 -10 0 1 -10 42 -21 91 -31 126 -31
397 -1 493 12 35 20 65 19 67 -2 1 -22 -5 -46 -13 -74 -25 -177 -28 -259 -6
-64 16 -72 17 -67 3z"/>
<path d="M7270 7144 c-53 -19 -84 -23 -167 -22 -57 1 -105 -1 -108 -4 -3 -3 0
-61 6 -129 11 -115 8 -253 -7 -381 l-6 -53 118 -1 c98 0 129 -4 173 -22 30
-12 56 -20 58 -18 2 1 -9 34 -24 72 -26 66 -27 77 -27 249 -1 171 1 184 26
254 15 41 26 76 25 76 -1 1 -31 -9 -67 -21z"/>
<path d="M5405 7143 c60 -141 70 -354 26 -523 -11 -41 -22 -83 -26 -92 -6 -16
-2 -16 52 3 46 17 82 21 179 22 l122 0 -11 31 c-12 32 -17 394 -7 490 l5 50
-106 -3 c-85 -2 -117 2 -167 18 -74 25 -76 25 -67 4z"/>
<path d="M5982 7094 c-10 -7 -13 -18 -8 -29 8 -23 9 -398 0 -453 l-6 -41 138
2 139 2 -3 25 c-1 14 -3 132 -5 263 l-2 238 -119 2 c-74 1 -125 -2 -134 -9z"/>
<path d="M6495 6837 l0 -264 130 0 130 0 0 263 0 264 -130 0 -130 0 0 -263z"/>
<path d="M7465 6293 c47 -114 61 -423 25 -558 -10 -38 -17 -71 -15 -73 2 -2
26 4 54 14 61 19 237 16 284 -6 15 -7 29 -11 32 -8 3 2 -3 29 -13 59 -27 84
-23 417 6 514 11 38 19 71 17 73 -1 2 -30 -4 -63 -12 -75 -20 -190 -20 -262
-1 -70 19 -74 19 -65 -2z"/>
<path d="M7475 5427 c28 -89 37 -155 37 -302 1 -155 -1 -174 -38 -302 -6 -23
-6 -23 37 -7 73 26 193 28 272 6 37 -11 67 -16 67 -12 0 4 -7 27 -15 51 -35
97 -35 432 -1 528 9 24 16 47 16 52 0 4 -24 1 -52 -8 -70 -20 -208 -20 -277 0
l-53 17 7 -23z"/>
<path d="M4896 4548 c38 -146 42 -376 9 -513 -21 -87 -23 -84 43 -69 74 18
194 18 262 0 30 -8 56 -13 58 -11 1 1 -5 36 -15 76 -25 104 -25 383 0 488 10
40 16 75 14 77 -2 2 -35 -3 -73 -11 -87 -19 -151 -19 -239 0 -38 8 -70 15 -71
15 -1 0 5 -23 12 -52z"/>
<path d="M7474 4576 c34 -117 38 -155 33 -316 -4 -123 -10 -182 -25 -232 -10
-37 -17 -69 -15 -72 2 -2 25 3 50 10 60 18 214 18 283 0 30 -8 56 -14 57 -13
1 1 -8 34 -19 72 -29 97 -33 419 -5 507 9 31 17 59 17 62 0 3 -17 -2 -37 -11
-22 -9 -79 -18 -133 -21 -77 -3 -106 0 -153 16 l-59 19 6 -21z"/>
<path d="M5416 4080 c-2 -8 -6 -57 -8 -107 l-4 -93 140 0 141 1 -26 22 c-14
12 -38 32 -55 44 -109 79 -170 127 -176 137 -5 7 -9 5 -12 -4z"/>
<path d="M5400 3737 c0 -1 9 -27 20 -57 11 -30 25 -103 32 -163 13 -125 0
-264 -34 -355 -11 -29 -18 -55 -16 -58 3 -2 25 3 49 12 63 23 154 32 235 25
l71 -7 -10 36 c-12 39 -16 410 -5 481 l7 46 -117 0 c-96 0 -127 4 -172 21 -57
23 -60 24 -60 19z"/>
<path d="M7265 3718 c-46 -16 -86 -21 -167 -21 l-108 0 8 -86 c9 -113 9 -264
-1 -378 l-8 -93 108 1 c81 0 124 -5 173 -20 35 -11 65 -19 66 -18 1 1 -9 36
-23 77 -46 138 -42 385 8 512 10 27 15 48 11 47 -4 -1 -34 -10 -67 -21z"/>
<path d="M5975 3420 l0 -261 135 3 135 3 -2 35 c-2 51 -2 420 0 450 l2 25
-135 3 -135 3 0 -261z"/>
<path d="M6495 3420 l0 -260 136 0 136 0 -5 33 c-3 17 -5 134 -6 260 l0 227
-130 0 -131 0 0 -260z"/>
</g>
</svg>
