<?xml version="1.0" standalone="no"?>
<!DOCTYPE svg PUBLIC "-//W3C//DTD SVG 20010904//EN"
 "http://www.w3.org/TR/2001/REC-SVG-20010904/DTD/svg10.dtd">
<svg version="1.0" xmlns="http://www.w3.org/2000/svg"
 width="741.000000pt" height="741.000000pt" viewBox="0 0 741.000000 741.000000"
 preserveAspectRatio="xMidYMid meet">

<g transform="translate(0.000000,741.000000) scale(0.100000,-0.100000)"
fill="#000000" stroke="none">
<path d="M0 3705 l0 -3705 3705 0 3706 0 -3 809 -3 809 -27 22 c-16 12 -28 30
-28 40 0 10 12 28 28 40 l27 22 3 2834 2 2834 -3705 0 -3705 0 0 -3705z m2778
3479 c2 -11 -4 -26 -12 -33 -31 -26 -71 14 -45 45 17 21 53 14 57 -12z m1505
-229 c32 -31 25 -55 -22 -74 -60 -25 -111 46 -58 82 31 22 48 21 80 -8z m-519
-94 c9 -10 25 -49 36 -87 11 -38 24 -78 28 -89 5 -11 17 -45 26 -75 10 -30 22
-64 26 -75 5 -11 22 -63 39 -115 16 -52 38 -116 48 -142 l17 -48 127 0 c69 0
140 -5 157 -11 59 -20 62 -36 62 -274 l0 -215 119 0 c117 0 119 0 150 -29 l31
-29 0 -223 0 -223 -32 -33 -32 -33 -108 0 c-93 0 -108 -2 -108 -16 0 -9 42
-143 93 -298 51 -154 99 -301 107 -326 7 -25 19 -55 27 -67 l13 -23 1171 0
c1294 0 1215 4 1236 -64 17 -55 18 -54 -372 -341 -38 -27 -75 -54 -84 -60 -14
-8 -36 -26 -136 -103 -5 -4 -32 -24 -60 -45 -27 -20 -54 -40 -60 -45 -11 -9
-224 -166 -300 -222 -27 -20 -67 -49 -89 -66 -72 -54 -211 -158 -317 -236 -57
-43 -108 -81 -114 -86 -33 -26 -295 -220 -317 -235 -53 -33 -53 -63 3 -202 4
-11 31 -92 59 -180 29 -88 56 -171 62 -184 25 -65 638 -1912 638 -1925 0 -26
-50 -57 -82 -51 -16 4 -35 2 -42 -4 -18 -15 -55 -1 -115 45 -84 64 -382 288
-431 324 -100 74 -243 181 -605 455 -298 225 -394 297 -465 350 -25 19 -74 56
-110 84 l-65 50 -253 1 -253 0 -56 -42 c-31 -24 -81 -60 -112 -82 -31 -21 -67
-49 -81 -61 -22 -19 -75 -58 -145 -105 -12 -8 -111 -82 -220 -165 -108 -82
-232 -175 -275 -205 -42 -30 -119 -87 -171 -127 -52 -39 -195 -147 -319 -240
-124 -92 -231 -173 -238 -180 -37 -36 -102 7 -102 66 0 20 18 92 40 161 22 68
40 128 40 133 0 4 12 34 26 65 14 31 29 79 34 107 5 27 24 98 44 157 20 59 36
116 36 127 0 11 4 22 9 25 5 3 11 18 14 33 10 55 37 149 57 193 10 25 24 70
30 101 6 31 17 65 25 75 8 11 15 30 15 44 0 14 10 52 21 85 12 33 29 89 39
125 10 36 22 79 28 95 6 17 16 48 21 70 32 118 104 354 117 378 8 16 14 37 14
46 0 10 9 44 21 77 21 60 49 158 52 183 1 8 -23 33 -54 55 -59 43 -677 508
-1022 770 -110 83 -209 158 -220 166 -12 8 -75 55 -141 105 -65 49 -164 124
-220 165 -57 41 -152 111 -212 155 -137 101 -164 127 -164 159 0 52 61 74 110
38 23 -16 95 -17 1102 -20 l1077 -3 5 128 c3 70 5 140 5 156 -2 75 -2 456 -1
482 1 17 -1 124 -4 239 -6 225 -2 251 44 286 21 17 40 20 138 20 l114 0 0 215
0 215 29 32 29 33 164 2 c90 0 184 2 210 2 l47 1 25 56 c14 31 26 66 26 77 0
11 9 50 20 86 74 249 93 307 101 318 6 6 7 22 4 35 -8 31 28 78 59 78 13 0 30
-8 40 -19z m-881 -385 c23 -17 22 -49 -2 -70 -26 -23 -52 -17 -70 16 -14 24
-14 28 3 47 22 24 43 26 69 7z m-343 -956 c8 -15 6 -24 -10 -40 -11 -11 -24
-20 -29 -20 -14 0 -41 29 -41 44 0 36 62 49 80 16z m2532 -695 c9 -21 8 -28
-7 -45 -31 -34 -75 -20 -75 25 0 48 62 63 82 20z m-3628 -207 c15 -24 -3 -52
-37 -56 -33 -4 -53 28 -37 59 14 25 58 23 74 -3z m5826 -1613 c26 -32 -13 -81
-47 -59 -35 22 -23 74 17 74 10 0 23 -7 30 -15z m-655 -1020 c0 -27 -3 -30
-30 -30 -21 0 -31 5 -33 18 -6 33 6 49 35 45 24 -3 28 -8 28 -33z m-5387 -447
c17 -17 15 -43 -4 -59 -31 -26 -70 25 -44 56 15 18 32 19 48 3z"/>
<path d="M3720 6529 c-6 -24 -15 -55 -20 -69 -4 -14 -16 -52 -25 -85 -10 -33
-24 -78 -32 -99 -10 -29 -11 -41 -3 -46 11 -7 201 -1 209 6 5 4 -99 317 -109
328 -5 5 -14 -11 -20 -35z"/>
<path d="M3134 6074 c16 -108 17 -136 7 -208 -6 -44 -10 -80 -9 -82 2 -1 40 0
85 3 l81 6 1 153 0 154 -47 0 c-26 0 -64 3 -86 7 l-38 6 6 -39z"/>
<path d="M4105 6103 l-60 -4 0 -154 0 -155 36 0 c20 0 57 -3 83 -6 l47 -7 -8
64 c-9 79 -9 95 0 192 8 76 8 77 -15 75 -13 -1 -50 -3 -83 -5z"/>
<path d="M3450 5945 l0 -145 70 0 70 0 0 145 0 145 -70 0 -70 0 0 -145z"/>
<path d="M3750 5945 l0 -145 70 0 70 0 0 145 0 145 -70 0 -70 0 0 -145z"/>
<path d="M3566 5660 l-109 -5 -13 -40 c-6 -22 -28 -92 -48 -155 -19 -63 -49
-160 -65 -215 -17 -55 -46 -152 -66 -215 -19 -63 -54 -176 -76 -250 -22 -74
-45 -139 -50 -145 -5 -5 -9 -55 -9 -112 l0 -103 660 0 c378 1 660 5 660 10 0
17 -202 615 -211 625 -5 5 -9 18 -9 30 0 18 -58 201 -79 250 -4 11 -30 88 -57
170 l-49 150 -185 5 c-102 3 -234 3 -294 0z"/>
<path d="M3126 5438 c-2 -123 -5 -232 -5 -243 -1 -11 2 -46 6 -78 l8 -59 49
164 c27 89 67 217 88 283 21 66 38 128 38 138 0 15 -11 17 -90 17 l-89 0 -5
-222z"/>
<path d="M4185 5629 c4 -17 13 -46 21 -63 13 -30 14 -30 11 29 -2 49 -5 60
-20 63 -17 3 -18 0 -12 -29z"/>
<path d="M2833 5560 c5 -30 7 -106 4 -167 l-4 -113 86 0 87 0 0 143 c-1 78 2
153 6 167 l7 25 -98 0 -97 0 9 -55z"/>
<path d="M4335 5445 l0 -170 90 0 90 0 0 170 0 170 -90 0 -90 0 0 -170z"/>
<path d="M2835 4949 l0 -166 85 1 85 0 0 166 0 165 -85 0 -85 0 0 -166z"/>
<path d="M2835 4449 l0 -167 90 1 89 2 -4 50 c-3 28 -4 102 -3 165 l1 116 -86
0 -87 0 0 -167z"/>
<path d="M735 4290 c3 -5 27 -24 53 -42 26 -18 53 -38 62 -45 21 -17 91 -70
165 -123 58 -42 330 -246 1148 -863 180 -136 332 -247 336 -247 5 0 11 12 14
28 11 60 48 189 62 214 8 14 15 37 15 50 0 13 4 28 9 33 6 6 24 62 41 125 38
140 45 167 58 205 32 91 62 195 62 209 0 9 11 39 25 66 14 27 25 60 25 73 0
14 6 30 14 36 8 7 16 33 19 59 3 26 8 60 12 76 6 20 4 27 -3 22 -19 -11 -96
12 -115 35 -9 12 -20 39 -23 60 l-7 39 -989 0 c-648 0 -987 -3 -983 -10z
m1656 -170 c28 -15 24 -56 -6 -76 -24 -16 -27 -16 -45 1 -22 20 -26 55 -8 73
15 15 33 15 59 2z"/>
<path d="M3130 4270 l0 -30 113 -1 c61 0 316 0 564 0 l453 1 35 -31 35 -31 0
-219 0 -219 121 0 c120 0 121 0 150 -30 l30 -29 -4 -233 c-3 -128 -4 -240 -4
-248 0 -8 1 -126 1 -261 l1 -246 25 16 c14 8 27 18 30 21 6 7 83 62 160 115
30 21 63 46 72 55 9 10 23 20 30 22 13 5 5 33 -51 193 -6 17 -66 197 -132 400
-67 204 -130 390 -140 415 -9 25 -41 118 -70 208 l-52 162 -683 0 -684 0 0
-30z"/>
<path d="M4630 4294 c0 -8 278 -850 295 -894 8 -19 31 -87 51 -150 53 -167 75
-220 89 -220 7 0 31 15 53 33 51 41 147 114 292 221 63 47 158 117 210 156 52
40 173 130 269 201 96 71 186 139 200 149 14 11 60 45 101 76 79 59 86 64 188
141 35 27 89 66 120 87 32 22 101 73 155 113 54 40 102 73 107 73 6 0 10 5 10
10 0 7 -363 10 -1070 10 -588 0 -1070 -3 -1070 -6z m625 -223 c0 -34 -30 -51
-51 -29 -25 24 -10 60 24 56 21 -2 27 -8 27 -27z"/>
<path d="M2982 4090 c-43 -137 -70 -224 -102 -330 -17 -58 -51 -168 -75 -245
-24 -77 -53 -174 -65 -215 -13 -41 -34 -111 -47 -155 -13 -44 -32 -107 -43
-140 -34 -107 -39 -133 -26 -138 6 -3 48 -32 93 -66 l81 -61 140 0 140 0 26
-31 c24 -28 26 -38 26 -127 l0 -97 37 -25 c21 -14 92 -67 160 -117 l122 -93
291 -1 290 -1 78 56 c42 31 85 63 95 70 17 13 18 50 18 647 0 348 -4 636 -9
641 -5 5 -263 8 -573 8 l-566 0 -29 31 -29 30 -5 217 -5 216 -23 -74z"/>
<path d="M3133 4089 c16 -91 18 -141 7 -213 -6 -43 -10 -79 -8 -81 2 -1 40 0
85 3 l82 4 -1 154 0 154 -47 0 c-25 0 -64 3 -85 7 l-39 6 6 -34z"/>
<path d="M4100 4113 l-55 -4 0 -154 0 -155 60 0 c33 0 69 -3 80 -6 19 -5 20 0
20 160 l0 166 -25 -2 c-14 -1 -50 -3 -80 -5z"/>
<path d="M3450 3955 l0 -145 70 0 70 0 0 145 0 145 -70 0 -70 0 0 -145z"/>
<path d="M3750 3955 l0 -145 70 0 70 0 0 145 0 145 -70 0 -70 0 0 -145z"/>
<path d="M4335 3460 l0 -166 62 4 c34 2 76 -1 93 -6 30 -11 30 -10 23 16 -10
35 -9 236 0 283 l7 35 -92 0 -93 -1 0 -165z"/>
<path d="M4335 2963 l0 -163 85 0 85 0 0 163 0 162 -85 0 -85 0 0 -162z"/>
<path d="M4940 2778 c-19 -12 -62 -45 -96 -73 -33 -27 -95 -74 -137 -103 l-77
-52 0 -153 0 -153 -28 -27 c-27 -26 -31 -27 -150 -27 l-122 0 0 -221 0 -221
-29 -29 c-21 -20 -40 -29 -63 -29 l-33 -1 36 -32 c20 -17 118 -93 218 -167 99
-74 209 -156 243 -182 35 -26 79 -58 98 -71 19 -13 79 -58 132 -100 181 -142
809 -609 813 -605 2 2 -9 44 -25 93 -108 330 -542 1634 -548 1650 -5 11 -46
134 -92 273 -45 138 -87 252 -94 252 -6 0 -27 -10 -46 -22z"/>
<path d="M2567 2733 c-2 -5 -9 -26 -15 -48 -6 -22 -30 -101 -52 -175 -22 -74
-44 -148 -49 -165 -15 -50 -82 -263 -117 -374 -19 -58 -34 -113 -34 -124 0
-10 -5 -28 -12 -40 -6 -12 -15 -35 -19 -52 -4 -16 -35 -120 -69 -230 -83 -271
-126 -412 -161 -530 -4 -16 -24 -82 -42 -145 -19 -63 -30 -117 -25 -119 5 -2
22 9 37 23 15 14 31 26 35 26 4 0 24 13 44 30 37 29 225 170 272 203 24 16
103 76 236 176 33 25 77 60 98 78 22 18 44 33 50 33 5 0 31 18 57 40 26 22 51
40 55 40 4 0 18 9 30 21 13 12 43 35 67 53 24 17 104 76 177 131 l133 100 -99
5 c-89 4 -102 8 -124 30 -25 25 -25 25 -28 247 l-3 223 -115 0 c-64 0 -124 5
-135 10 -43 23 -49 58 -49 265 0 107 -4 195 -9 195 -4 0 -31 18 -59 40 -49 39
-67 47 -75 33z"/>
<path d="M2835 2461 l0 -168 34 9 c18 5 59 7 90 3 l57 -6 -9 79 c-6 49 -6 113
0 166 l9 86 -91 0 -90 0 0 -169z"/>
<path d="M4335 2465 l0 -160 93 -1 93 -1 -5 26 c-12 64 -16 171 -8 231 l8 66
-91 -1 -90 0 0 -160z"/>
<path d="M3130 2290 l0 -40 50 0 c28 0 50 3 50 8 0 4 -23 22 -50 40 l-50 32 0
-40z"/>
<path d="M3137 2082 c10 -61 7 -200 -5 -244 l-10 -35 52 10 c28 5 68 7 89 4
l37 -5 -2 155 -3 155 -83 4 -83 3 8 -47z"/>
<path d="M4049 2125 c0 0 -2 -70 -3 -156 l-2 -157 35 5 c20 3 59 1 87 -4 l51
-10 -10 51 c-5 28 -7 101 -4 163 l4 112 -78 -2 c-43 -1 -79 -2 -80 -2z"/>
<path d="M3460 2112 c-12 -4 -14 -282 -2 -282 4 -1 34 -2 67 -3 l60 -2 0 143
0 144 -57 1 c-32 1 -62 1 -68 -1z"/>
<path d="M3754 2111 c-2 -2 -4 -66 -4 -142 l0 -137 66 -4 c36 -1 68 0 72 4 4
4 6 69 4 145 l-3 138 -65 0 c-36 0 -68 -2 -70 -4z"/>
</g>
</svg>
